<?xml version="1.0" standalone="no"?>
<!DOCTYPE svg PUBLIC "-//W3C//DTD SVG 20010904//EN"
 "http://www.w3.org/TR/2001/REC-SVG-20010904/DTD/svg10.dtd">
<svg version="1.0" xmlns="http://www.w3.org/2000/svg"
 width="275.000000pt" height="275.000000pt" viewBox="0 0 275.000000 275.000000"
 preserveAspectRatio="xMidYMid meet">
<metadata>
Created by potrace 1.14, written by Peter Selinger 2001-2017
</metadata>
<g transform="translate(0.000000,275.000000) scale(0.100000,-0.100000)"
fill="#000000" stroke="none">
<path d="M0 1720 l0 -1030 63 0 64 0 6 317 c4 174 7 514 7 755 l0 439 63 -3
62 -3 0 -338 0 -337 72 0 73 0 2 338 3 337 65 0 65 0 3 -202 2 -203 65 0 65 0
1 53 c1 28 4 120 8 202 l6 150 60 0 60 0 5 -57 c3 -35 1 -60 -5 -62 -5 -3 25
-5 68 -5 l77 -1 0 65 0 65 -49 0 c-86 0 -81 -13 -81 211 l0 199 61 0 c40 0 65
5 75 15 9 8 11 15 5 15 -7 0 -11 23 -11 55 l0 55 -70 0 -70 0 0 -65 0 -65 -65
0 -65 0 0 65 0 65 -70 0 -70 0 0 -47 c0 -86 -3 -88 -70 -85 -33 2 -61 8 -61
13 -1 5 -3 14 -4 19 -1 6 -3 30 -4 55 l-1 45 -205 0 -205 0 0 -1030z m405 685
l0 -200 -56 -3 c-37 -2 -59 1 -65 10 -5 7 -8 100 -6 206 l3 193 62 -3 62 -3 0
-200z m281 -3 l2 -203 -67 3 -66 3 -3 190 c-1 104 0 195 3 203 3 9 22 12 67
10 l63 -3 1 -203z"/>
<path d="M1100 2698 c0 -29 -4 -58 -8 -65 -4 -6 -34 -13 -67 -15 l-60 -3 0
-209 0 -209 65 -1 65 -1 0 -63 0 -62 72 0 72 0 3 63 3 62 60 0 60 0 3 -62 3
-63 74 0 75 0 0 -70 0 -70 60 0 59 0 3 68 3 67 143 3 142 3 0 -70 0 -70 137
-3 137 -3 -3 -67 -2 -68 70 0 70 0 3 -67 c3 -76 -6 -69 96 -72 l42 -1 0 -70 0
-69 -137 -3 -138 -3 -3 -68 -3 -67 -550 0 -550 0 3 -62 3 -63 618 -3 618 -2
-3 -73 c-3 -70 -4 -72 -27 -69 -13 2 -44 1 -68 -3 l-44 -6 2 -62 3 -62 -412
-3 -412 -2 0 -70 0 -70 -70 0 -70 0 0 -70 0 -70 -137 0 -138 0 3 -65 4 -64
-69 -3 -68 -3 -3 -207 -2 -208 -70 0 -70 0 0 -65 0 -65 545 0 545 0 0 65 0 65
-65 0 -65 0 0 70 0 70 -70 0 -70 0 0 75 0 75 70 0 c49 0 70 -4 71 -12 1 -7 0
-39 -1 -70 l-2 -58 136 0 136 0 0 275 0 276 73 -3 72 -3 3 -202 2 -203 130 0
130 0 0 135 0 135 75 0 75 0 0 -140 0 -140 -70 0 -70 0 0 -140 0 -140 -70 0
-70 0 0 -65 0 -65 275 0 275 0 0 1375 0 1375 -550 0 -550 0 -1 -57 c-1 -32 -1
-61 -1 -64 1 -4 -26 -10 -60 -13 -73 -9 -78 -4 -78 77 l0 57 -70 0 -69 0 -3
-67 -3 -68 -45 -1 c-79 -1 -80 0 -80 72 l0 64 -70 0 -70 0 0 -52z m134 -105
c12 -29 4 -377 -8 -385 -13 -9 -88 -10 -110 -2 -14 5 -16 33 -16 203 l0 198
64 2 c53 2 65 -1 70 -16z m276 -188 l-1 -205 -49 0 c-85 0 -80 -13 -80 211 l0
199 65 0 66 0 -1 -205z"/>
<path d="M830 1855 l0 -65 200 0 200 0 0 65 0 65 -200 0 -200 0 0 -65z"/>
<path d="M1993 1783 l-63 -4 0 -64 0 -65 65 0 65 0 0 70 c0 39 -1 69 -2 68 -2
-1 -31 -3 -65 -5z"/>
<path d="M970 1166 l0 -64 62 3 62 2 4 62 3 61 -65 0 -66 0 0 -64z"/>
</g>
</svg>
