<svg width="30" height="23" viewBox="0 0 30 23" fill="none" xmlns="http://www.w3.org/2000/svg">
<path d="M25.3838 1.91144C23.4837 1.02042 21.4265 0.373718 19.2836 6.61051e-05C19.2648 -0.000538354 19.2461 0.00300859 19.2289 0.0104576C19.2116 0.0179066 19.1961 0.0290768 19.1836 0.0431801C18.9265 0.517431 18.6265 1.13539 18.4265 1.60964C16.1535 1.26473 13.842 1.26473 11.5691 1.60964C11.3691 1.12102 11.0691 0.517431 10.7977 0.0431801C10.7834 0.0144376 10.7405 6.61051e-05 10.6977 6.61051e-05C8.55475 0.373718 6.51184 1.02042 4.5975 1.91144C4.58322 1.91144 4.56893 1.92581 4.55465 1.94018C0.668824 7.78928 -0.402634 13.4803 0.125952 19.1138C0.125952 19.1426 0.140238 19.1713 0.16881 19.1857C2.74031 21.0827 5.21181 22.2324 7.65473 22.994C7.69759 23.0084 7.74045 22.994 7.75473 22.9653C8.32618 22.1749 8.84048 21.3414 9.28335 20.4647C9.31192 20.4072 9.28335 20.3497 9.2262 20.3354C8.41189 20.0192 7.64044 19.6455 6.88328 19.2144C6.82614 19.1857 6.82614 19.0994 6.86899 19.0563C7.02614 18.9414 7.18329 18.812 7.34044 18.697C7.36901 18.6683 7.41187 18.6683 7.44044 18.6827C12.3549 20.939 17.655 20.939 22.5123 18.6827C22.5409 18.6683 22.5837 18.6683 22.6123 18.697C22.7694 18.8264 22.9266 18.9414 23.0837 19.0707C23.1409 19.1138 23.1409 19.2 23.0694 19.2288C22.3266 19.6743 21.5408 20.0336 20.7265 20.3497C20.6694 20.3641 20.6551 20.436 20.6694 20.4791C21.1265 21.3557 21.6408 22.1893 22.198 22.9797C22.2408 22.994 22.2837 23.0084 22.3266 22.994C24.7838 22.2324 27.2553 21.0827 29.8268 19.1857C29.8553 19.1713 29.8696 19.1426 29.8696 19.1138C30.4982 12.6036 28.8267 6.95575 25.4409 1.94018C25.4266 1.92581 25.4124 1.91144 25.3838 1.91144V1.91144ZM10.0262 15.6791C8.55476 15.6791 7.32615 14.3138 7.32615 12.6324C7.32615 10.9509 8.52618 9.58568 10.0262 9.58568C11.5406 9.58568 12.7406 10.9653 12.7263 12.6324C12.7263 14.3138 11.5263 15.6791 10.0262 15.6791ZM19.9836 15.6791C18.5122 15.6791 17.2836 14.3138 17.2836 12.6324C17.2836 10.9509 18.4836 9.58568 19.9836 9.58568C21.498 9.58568 22.698 10.9653 22.6837 12.6324C22.6837 14.3138 21.498 15.6791 19.9836 15.6791Z" fill="#FFFC00"/>
</svg>
